<mxfile host="app.diagrams.net" modified="2022-09-30T11:36:39.982Z" agent="5.0 (Windows NT 10.0; Win64; x64) AppleWebKit/537.36 (KHTML, like Gecko) Chrome/106.0.0.0 Safari/537.36" etag="VV1CtKqLzOqDpwQtuCtj" version="20.3.7" type="github">
  <diagram name="Page-1" id="7e0a89b8-554c-2b80-1dc8-d5c74ca68de4">
    <mxGraphModel dx="1422" dy="766" grid="1" gridSize="6" guides="1" tooltips="1" connect="1" arrows="1" fold="1" page="1" pageScale="1" pageWidth="1100" pageHeight="850" background="none" math="0" shadow="0">
      <root>
        <mxCell id="0" />
        <mxCell id="1" parent="0" />
        <mxCell id="B-WgJyLfi245DJp-j256-12" value="" style="rounded=0;whiteSpace=wrap;html=1;dashed=1;dashPattern=1 1;" parent="1" vertex="1">
          <mxGeometry x="708" y="172" width="72" height="180" as="geometry" />
        </mxCell>
        <mxCell id="gZlIewE0345WR6L54zIT-32" style="edgeStyle=orthogonalEdgeStyle;rounded=0;orthogonalLoop=1;jettySize=auto;html=1;exitX=0.5;exitY=1;exitDx=0;exitDy=0;exitPerimeter=0;entryX=0.5;entryY=0;entryDx=0;entryDy=0;entryPerimeter=0;endArrow=none;endFill=0;" parent="1" source="y7XGhdpT8KzlNRmjM2dh-26" target="y7XGhdpT8KzlNRmjM2dh-66" edge="1">
          <mxGeometry relative="1" as="geometry">
            <Array as="points">
              <mxPoint x="126" y="480" />
              <mxPoint x="161" y="480" />
            </Array>
          </mxGeometry>
        </mxCell>
        <mxCell id="gZlIewE0345WR6L54zIT-33" style="edgeStyle=orthogonalEdgeStyle;rounded=0;orthogonalLoop=1;jettySize=auto;html=1;exitX=0.5;exitY=0;exitDx=0;exitDy=0;exitPerimeter=0;entryX=1;entryY=0.61;entryDx=0;entryDy=0;endArrow=none;endFill=0;" parent="1" source="y7XGhdpT8KzlNRmjM2dh-26" target="gZlIewE0345WR6L54zIT-18" edge="1">
          <mxGeometry relative="1" as="geometry">
            <Array as="points">
              <mxPoint x="126" y="378" />
              <mxPoint x="636" y="378" />
              <mxPoint x="636" y="275" />
            </Array>
          </mxGeometry>
        </mxCell>
        <mxCell id="y7XGhdpT8KzlNRmjM2dh-26" value="" style="pointerEvents=1;verticalLabelPosition=bottom;shadow=0;dashed=0;align=center;html=1;verticalAlign=top;shape=mxgraph.electrical.signal_sources.source;aspect=fixed;points=[[0.5,0,0],[1,0.5,0],[0.5,1,0],[0,0.5,0]];elSignalType=ac;" parent="1" vertex="1">
          <mxGeometry x="96" y="402" width="60" height="60" as="geometry" />
        </mxCell>
        <mxCell id="y7XGhdpT8KzlNRmjM2dh-37" style="edgeStyle=orthogonalEdgeStyle;rounded=0;orthogonalLoop=1;jettySize=auto;html=1;entryX=0.5;entryY=0;entryDx=0;entryDy=0;entryPerimeter=0;endArrow=none;endFill=0;" parent="1" source="y7XGhdpT8KzlNRmjM2dh-27" target="y7XGhdpT8KzlNRmjM2dh-36" edge="1">
          <mxGeometry relative="1" as="geometry">
            <Array as="points">
              <mxPoint x="126" y="330" />
            </Array>
          </mxGeometry>
        </mxCell>
        <mxCell id="y7XGhdpT8KzlNRmjM2dh-27" value="" style="pointerEvents=1;verticalLabelPosition=bottom;shadow=0;dashed=0;align=center;html=1;verticalAlign=top;shape=mxgraph.electrical.signal_sources.source;aspect=fixed;points=[[0.5,0,0],[1,0.5,0],[0.5,1,0],[0,0.5,0]];elSignalType=dc3;" parent="1" vertex="1">
          <mxGeometry x="96" y="158" width="60" height="60" as="geometry" />
        </mxCell>
        <mxCell id="gZlIewE0345WR6L54zIT-2" style="edgeStyle=orthogonalEdgeStyle;rounded=0;orthogonalLoop=1;jettySize=auto;html=1;exitX=0.7;exitY=1;exitDx=0;exitDy=0;exitPerimeter=0;entryX=1;entryY=0.5;entryDx=0;entryDy=0;entryPerimeter=0;endArrow=none;endFill=0;" parent="1" source="y7XGhdpT8KzlNRmjM2dh-28" target="y7XGhdpT8KzlNRmjM2dh-31" edge="1">
          <mxGeometry relative="1" as="geometry">
            <Array as="points">
              <mxPoint x="378" y="330" />
            </Array>
          </mxGeometry>
        </mxCell>
        <mxCell id="eO766DsV-XlhexN8wjzY-2" style="edgeStyle=orthogonalEdgeStyle;rounded=0;orthogonalLoop=1;jettySize=auto;html=1;exitX=0;exitY=0.72;exitDx=0;exitDy=0;exitPerimeter=0;entryX=0;entryY=0.5;entryDx=0;entryDy=0;entryPerimeter=0;endArrow=none;endFill=0;" parent="1" source="y7XGhdpT8KzlNRmjM2dh-28" target="y7XGhdpT8KzlNRmjM2dh-31" edge="1">
          <mxGeometry relative="1" as="geometry">
            <Array as="points">
              <mxPoint x="482" y="216" />
              <mxPoint x="378" y="216" />
            </Array>
          </mxGeometry>
        </mxCell>
        <mxCell id="eO766DsV-XlhexN8wjzY-3" style="edgeStyle=orthogonalEdgeStyle;rounded=0;orthogonalLoop=1;jettySize=auto;html=1;exitX=0.7;exitY=0;exitDx=0;exitDy=0;exitPerimeter=0;entryX=1;entryY=0.39;entryDx=0;entryDy=0;endArrow=none;endFill=0;" parent="1" source="y7XGhdpT8KzlNRmjM2dh-28" target="gZlIewE0345WR6L54zIT-18" edge="1">
          <mxGeometry relative="1" as="geometry">
            <Array as="points">
              <mxPoint x="582" y="330" />
              <mxPoint x="582" y="289" />
            </Array>
          </mxGeometry>
        </mxCell>
        <mxCell id="y7XGhdpT8KzlNRmjM2dh-28" value="" style="verticalLabelPosition=bottom;shadow=0;dashed=0;align=center;html=1;verticalAlign=top;shape=mxgraph.electrical.mosfets1.mosfet_ic_n;rotation=90;" parent="1" vertex="1">
          <mxGeometry x="456" y="261" width="95" height="100" as="geometry" />
        </mxCell>
        <mxCell id="y7XGhdpT8KzlNRmjM2dh-44" style="edgeStyle=none;rounded=0;orthogonalLoop=1;jettySize=auto;html=1;exitX=1;exitY=0.5;exitDx=0;exitDy=0;exitPerimeter=0;entryX=1;entryY=0.5;entryDx=0;entryDy=0;entryPerimeter=0;endArrow=none;endFill=0;" parent="1" source="y7XGhdpT8KzlNRmjM2dh-30" target="y7XGhdpT8KzlNRmjM2dh-32" edge="1">
          <mxGeometry relative="1" as="geometry" />
        </mxCell>
        <mxCell id="y7XGhdpT8KzlNRmjM2dh-56" style="edgeStyle=orthogonalEdgeStyle;rounded=0;orthogonalLoop=1;jettySize=auto;html=1;entryX=0.5;entryY=0;entryDx=0;entryDy=0;entryPerimeter=0;endArrow=none;endFill=0;" parent="1" source="y7XGhdpT8KzlNRmjM2dh-30" target="y7XGhdpT8KzlNRmjM2dh-27" edge="1">
          <mxGeometry relative="1" as="geometry">
            <Array as="points">
              <mxPoint x="251" y="96" />
              <mxPoint x="126" y="96" />
            </Array>
          </mxGeometry>
        </mxCell>
        <mxCell id="y7XGhdpT8KzlNRmjM2dh-30" value="" style="pointerEvents=1;verticalLabelPosition=bottom;shadow=0;dashed=0;align=center;html=1;verticalAlign=top;shape=mxgraph.electrical.resistors.resistor_1;rotation=90;" parent="1" vertex="1">
          <mxGeometry x="201" y="138" width="100" height="20" as="geometry" />
        </mxCell>
        <mxCell id="gZlIewE0345WR6L54zIT-3" style="edgeStyle=orthogonalEdgeStyle;rounded=0;orthogonalLoop=1;jettySize=auto;html=1;exitX=1;exitY=0.5;exitDx=0;exitDy=0;exitPerimeter=0;entryX=0.5;entryY=0;entryDx=0;entryDy=0;entryPerimeter=0;endArrow=none;endFill=0;" parent="1" source="y7XGhdpT8KzlNRmjM2dh-31" target="y7XGhdpT8KzlNRmjM2dh-36" edge="1">
          <mxGeometry relative="1" as="geometry">
            <Array as="points">
              <mxPoint x="378" y="330" />
            </Array>
          </mxGeometry>
        </mxCell>
        <mxCell id="y7XGhdpT8KzlNRmjM2dh-31" value="" style="pointerEvents=1;verticalLabelPosition=bottom;shadow=0;dashed=0;align=center;html=1;verticalAlign=top;shape=mxgraph.electrical.resistors.resistor_1;rotation=90;" parent="1" vertex="1">
          <mxGeometry x="329" y="257" width="98" height="20" as="geometry" />
        </mxCell>
        <mxCell id="y7XGhdpT8KzlNRmjM2dh-39" style="edgeStyle=orthogonalEdgeStyle;rounded=0;orthogonalLoop=1;jettySize=auto;html=1;exitX=0;exitY=0.5;exitDx=0;exitDy=0;exitPerimeter=0;entryX=0.5;entryY=0;entryDx=0;entryDy=0;entryPerimeter=0;endArrow=none;endFill=0;" parent="1" source="y7XGhdpT8KzlNRmjM2dh-32" target="y7XGhdpT8KzlNRmjM2dh-36" edge="1">
          <mxGeometry relative="1" as="geometry">
            <Array as="points">
              <mxPoint x="251" y="330" />
            </Array>
          </mxGeometry>
        </mxCell>
        <mxCell id="y7XGhdpT8KzlNRmjM2dh-32" value="" style="pointerEvents=1;fillColor=strokeColor;verticalLabelPosition=bottom;shadow=0;dashed=0;align=center;html=1;verticalAlign=top;shape=mxgraph.electrical.diodes.zener_diode_1;rotation=-90;" parent="1" vertex="1">
          <mxGeometry x="216" y="251" width="70" height="36" as="geometry" />
        </mxCell>
        <mxCell id="B-WgJyLfi245DJp-j256-7" style="edgeStyle=orthogonalEdgeStyle;rounded=0;jumpStyle=sharp;jumpSize=50;orthogonalLoop=1;jettySize=auto;html=1;exitX=1;exitY=0.5;exitDx=0;exitDy=0;exitPerimeter=0;entryX=0;entryY=0.79;entryDx=0;entryDy=0;strokeWidth=1;endArrow=none;endFill=0;startSize=24;endSize=28;targetPerimeterSpacing=32;" parent="1" source="y7XGhdpT8KzlNRmjM2dh-34" target="gZlIewE0345WR6L54zIT-18" edge="1">
          <mxGeometry relative="1" as="geometry" />
        </mxCell>
        <mxCell id="B-WgJyLfi245DJp-j256-8" style="edgeStyle=orthogonalEdgeStyle;rounded=0;jumpStyle=sharp;jumpSize=50;orthogonalLoop=1;jettySize=auto;html=1;exitX=0;exitY=0.5;exitDx=0;exitDy=0;exitPerimeter=0;entryX=0;entryY=0.23;entryDx=0;entryDy=0;strokeWidth=1;endArrow=none;endFill=0;startSize=24;endSize=28;targetPerimeterSpacing=32;" parent="1" source="y7XGhdpT8KzlNRmjM2dh-34" target="gZlIewE0345WR6L54zIT-18" edge="1">
          <mxGeometry relative="1" as="geometry">
            <Array as="points">
              <mxPoint x="918" y="264" />
              <mxPoint x="918" y="299" />
            </Array>
          </mxGeometry>
        </mxCell>
        <mxCell id="y7XGhdpT8KzlNRmjM2dh-34" value="" style="pointerEvents=1;verticalLabelPosition=bottom;shadow=0;dashed=0;align=center;html=1;verticalAlign=top;shape=mxgraph.electrical.resistors.resistor_2;rotation=90;direction=south;" parent="1" vertex="1">
          <mxGeometry x="840" y="214" width="20" height="100" as="geometry" />
        </mxCell>
        <mxCell id="y7XGhdpT8KzlNRmjM2dh-36" value="" style="pointerEvents=1;verticalLabelPosition=bottom;shadow=0;dashed=0;align=center;html=1;verticalAlign=top;shape=mxgraph.electrical.signal_sources.signal_ground;" parent="1" vertex="1">
          <mxGeometry x="144" y="330" width="45" height="30" as="geometry" />
        </mxCell>
        <mxCell id="y7XGhdpT8KzlNRmjM2dh-66" value="" style="pointerEvents=1;verticalLabelPosition=bottom;shadow=0;dashed=0;align=center;html=1;verticalAlign=top;shape=mxgraph.electrical.signal_sources.signal_ground;" parent="1" vertex="1">
          <mxGeometry x="138" y="504" width="45" height="30" as="geometry" />
        </mxCell>
        <mxCell id="gZlIewE0345WR6L54zIT-30" style="edgeStyle=orthogonalEdgeStyle;rounded=0;orthogonalLoop=1;jettySize=auto;html=1;exitX=1;exitY=0.95;exitDx=0;exitDy=0;entryX=1;entryY=0.5;entryDx=0;entryDy=0;entryPerimeter=0;endArrow=none;endFill=0;" parent="1" source="gZlIewE0345WR6L54zIT-17" target="y7XGhdpT8KzlNRmjM2dh-30" edge="1">
          <mxGeometry relative="1" as="geometry">
            <Array as="points">
              <mxPoint x="324" y="182" />
              <mxPoint x="324" y="218" />
              <mxPoint x="251" y="218" />
            </Array>
          </mxGeometry>
        </mxCell>
        <mxCell id="gZlIewE0345WR6L54zIT-31" style="edgeStyle=orthogonalEdgeStyle;rounded=0;orthogonalLoop=1;jettySize=auto;html=1;exitX=1;exitY=0.39;exitDx=0;exitDy=0;endArrow=none;endFill=0;" parent="1" source="gZlIewE0345WR6L54zIT-17" target="eO766DsV-XlhexN8wjzY-8" edge="1">
          <mxGeometry relative="1" as="geometry">
            <Array as="points">
              <mxPoint x="684" y="217" />
              <mxPoint x="552" y="216" />
            </Array>
            <mxPoint x="486" y="222" as="targetPoint" />
          </mxGeometry>
        </mxCell>
        <mxCell id="gZlIewE0345WR6L54zIT-41" style="edgeStyle=orthogonalEdgeStyle;rounded=0;orthogonalLoop=1;jettySize=auto;html=1;exitX=1;exitY=0.05;exitDx=0;exitDy=0;entryX=1;entryY=0.05;entryDx=0;entryDy=0;endArrow=none;endFill=0;" parent="1" source="gZlIewE0345WR6L54zIT-17" target="gZlIewE0345WR6L54zIT-18" edge="1">
          <mxGeometry relative="1" as="geometry" />
        </mxCell>
        <mxCell id="gZlIewE0345WR6L54zIT-42" style="edgeStyle=orthogonalEdgeStyle;rounded=0;orthogonalLoop=1;jettySize=auto;html=1;exitX=1;exitY=0.61;exitDx=0;exitDy=0;entryX=0.5;entryY=0;entryDx=0;entryDy=0;entryPerimeter=0;endArrow=none;endFill=0;" parent="1" source="gZlIewE0345WR6L54zIT-17" target="y7XGhdpT8KzlNRmjM2dh-66" edge="1">
          <mxGeometry relative="1" as="geometry">
            <Array as="points">
              <mxPoint x="600" y="203" />
              <mxPoint x="600" y="480" />
              <mxPoint x="161" y="480" />
            </Array>
          </mxGeometry>
        </mxCell>
        <mxCell id="B-WgJyLfi245DJp-j256-9" style="edgeStyle=orthogonalEdgeStyle;rounded=0;jumpStyle=sharp;jumpSize=50;orthogonalLoop=1;jettySize=auto;html=1;exitX=0;exitY=0.79;exitDx=0;exitDy=0;entryX=0.997;entryY=0.859;entryDx=0;entryDy=0;entryPerimeter=0;strokeWidth=1;endArrow=none;endFill=0;startSize=24;endSize=28;targetPerimeterSpacing=32;" parent="1" source="gZlIewE0345WR6L54zIT-17" target="gZlIewE0345WR6L54zIT-21" edge="1">
          <mxGeometry relative="1" as="geometry">
            <Array as="points">
              <mxPoint x="918" y="192" />
              <mxPoint x="918" y="235" />
            </Array>
          </mxGeometry>
        </mxCell>
        <mxCell id="gZlIewE0345WR6L54zIT-17" value="" style="pointerEvents=1;verticalLabelPosition=bottom;shadow=0;dashed=0;align=center;html=1;verticalAlign=top;shape=mxgraph.electrical.electro-mechanical.dpdt3;elSwitchState=2;rotation=-180;" parent="1" vertex="1">
          <mxGeometry x="714" y="179" width="58" height="62" as="geometry" />
        </mxCell>
        <mxCell id="eO766DsV-XlhexN8wjzY-1" style="edgeStyle=orthogonalEdgeStyle;rounded=0;orthogonalLoop=1;jettySize=auto;html=1;exitX=1;exitY=0.95;exitDx=0;exitDy=0;entryX=0.5;entryY=0;entryDx=0;entryDy=0;entryPerimeter=0;endArrow=none;endFill=0;" parent="1" source="gZlIewE0345WR6L54zIT-18" target="y7XGhdpT8KzlNRmjM2dh-27" edge="1">
          <mxGeometry relative="1" as="geometry">
            <Array as="points">
              <mxPoint x="582" y="254" />
              <mxPoint x="582" y="96" />
              <mxPoint x="126" y="96" />
            </Array>
          </mxGeometry>
        </mxCell>
        <mxCell id="gZlIewE0345WR6L54zIT-18" value="" style="pointerEvents=1;verticalLabelPosition=bottom;shadow=0;dashed=0;align=center;html=1;verticalAlign=top;shape=mxgraph.electrical.electro-mechanical.dpdt3;elSwitchState=2;rotation=-180;" parent="1" vertex="1">
          <mxGeometry x="714" y="251" width="58" height="62" as="geometry" />
        </mxCell>
        <mxCell id="gZlIewE0345WR6L54zIT-35" style="edgeStyle=orthogonalEdgeStyle;rounded=0;orthogonalLoop=1;jettySize=auto;html=1;exitX=0.5;exitY=1;exitDx=0;exitDy=0;exitPerimeter=0;entryX=1;entryY=0.61;entryDx=0;entryDy=0;endArrow=none;endFill=0;" parent="1" source="gZlIewE0345WR6L54zIT-20" target="gZlIewE0345WR6L54zIT-18" edge="1">
          <mxGeometry relative="1" as="geometry">
            <Array as="points">
              <mxPoint x="636" y="333" />
              <mxPoint x="636" y="275" />
            </Array>
          </mxGeometry>
        </mxCell>
        <mxCell id="gZlIewE0345WR6L54zIT-40" style="edgeStyle=orthogonalEdgeStyle;rounded=0;orthogonalLoop=1;jettySize=auto;html=1;exitX=0.5;exitY=0;exitDx=0;exitDy=0;exitPerimeter=0;endArrow=none;endFill=0;entryX=0.5;entryY=0;entryDx=0;entryDy=0;entryPerimeter=0;" parent="1" source="gZlIewE0345WR6L54zIT-20" target="y7XGhdpT8KzlNRmjM2dh-66" edge="1">
          <mxGeometry relative="1" as="geometry">
            <mxPoint x="672" y="519" as="targetPoint" />
            <Array as="points">
              <mxPoint x="792" y="333" />
              <mxPoint x="792" y="480" />
              <mxPoint x="161" y="480" />
            </Array>
          </mxGeometry>
        </mxCell>
        <mxCell id="gZlIewE0345WR6L54zIT-20" value="" style="pointerEvents=1;verticalLabelPosition=bottom;shadow=0;dashed=0;align=center;html=1;verticalAlign=top;shape=mxgraph.electrical.electro-mechanical.relay_coil;rotation=90;" parent="1" vertex="1">
          <mxGeometry x="731" y="309" width="24" height="48" as="geometry" />
        </mxCell>
        <mxCell id="B-WgJyLfi245DJp-j256-6" style="edgeStyle=orthogonalEdgeStyle;rounded=0;jumpStyle=sharp;jumpSize=50;orthogonalLoop=1;jettySize=auto;html=1;exitX=0.001;exitY=0.857;exitDx=0;exitDy=0;strokeWidth=1;startSize=24;endSize=28;targetPerimeterSpacing=32;endArrow=none;endFill=0;entryX=0;entryY=0.23;entryDx=0;entryDy=0;exitPerimeter=0;" parent="1" source="gZlIewE0345WR6L54zIT-21" target="gZlIewE0345WR6L54zIT-17" edge="1">
          <mxGeometry relative="1" as="geometry">
            <mxPoint x="792" y="222" as="targetPoint" />
            <Array as="points">
              <mxPoint x="793" y="235" />
              <mxPoint x="793" y="227" />
            </Array>
          </mxGeometry>
        </mxCell>
        <mxCell id="gZlIewE0345WR6L54zIT-21" value="" style="shape=mxgraph.electrical.electro-mechanical.thermostat2;aspect=fixed;elSwitchState=off;rotation=90;direction=north;" parent="1" vertex="1">
          <mxGeometry x="840" y="189.46" width="21" height="75" as="geometry" />
        </mxCell>
        <mxCell id="eO766DsV-XlhexN8wjzY-4" value="" style="rounded=0;whiteSpace=wrap;html=1;fillColor=#000000;" parent="1" vertex="1">
          <mxGeometry x="375" y="327" width="6" height="6" as="geometry" />
        </mxCell>
        <mxCell id="eO766DsV-XlhexN8wjzY-5" value="" style="rounded=0;whiteSpace=wrap;html=1;fillColor=#000000;" parent="1" vertex="1">
          <mxGeometry x="248" y="327" width="6" height="6" as="geometry" />
        </mxCell>
        <mxCell id="eO766DsV-XlhexN8wjzY-7" value="" style="rounded=0;whiteSpace=wrap;html=1;fillColor=#000000;" parent="1" vertex="1">
          <mxGeometry x="248" y="215" width="6" height="6" as="geometry" />
        </mxCell>
        <mxCell id="eO766DsV-XlhexN8wjzY-9" value="" style="rounded=0;whiteSpace=wrap;html=1;fillColor=#000000;" parent="1" vertex="1">
          <mxGeometry x="633" y="330" width="6" height="6" as="geometry" />
        </mxCell>
        <mxCell id="eO766DsV-XlhexN8wjzY-10" value="" style="rounded=0;whiteSpace=wrap;html=1;fillColor=#000000;" parent="1" vertex="1">
          <mxGeometry x="633" y="272" width="6" height="6" as="geometry" />
        </mxCell>
        <mxCell id="eO766DsV-XlhexN8wjzY-11" value="" style="rounded=0;whiteSpace=wrap;html=1;fillColor=#000000;" parent="1" vertex="1">
          <mxGeometry x="248" y="93" width="6" height="6" as="geometry" />
        </mxCell>
        <mxCell id="eO766DsV-XlhexN8wjzY-15" value="PV&lt;span style=&quot;color: rgba(0, 0, 0, 0); font-family: monospace; font-size: 0px; text-align: start;&quot;&gt;%3CmxGraphModel%3E%3Croot%3E%3CmxCell%20id%3D%220%22%2F%3E%3CmxCell%20id%3D%221%22%20parent%3D%220%22%2F%3E%3CmxCell%20id%3D%222%22%20value%3D%22%22%20style%3D%22rounded%3D0%3BwhiteSpace%3Dwrap%3Bhtml%3D1%3BfillColor%3D%23000000%3B%22%20vertex%3D%221%22%20parent%3D%221%22%3E%3CmxGeometry%20x%3D%22771%22%20y%3D%22369%22%20width%3D%226%22%20height%3D%226%22%20as%3D%22geometry%22%2F%3E%3C%2FmxCell%3E%3C%2Froot%3E%3C%2FmxGraphModel%3E&lt;/span&gt;" style="text;html=1;strokeColor=none;fillColor=none;align=center;verticalAlign=middle;whiteSpace=wrap;rounded=0;" parent="1" vertex="1">
          <mxGeometry x="130.5" y="144" width="60" height="30" as="geometry" />
        </mxCell>
        <mxCell id="eO766DsV-XlhexN8wjzY-17" value="R1" style="text;html=1;strokeColor=none;fillColor=none;align=center;verticalAlign=middle;whiteSpace=wrap;rounded=0;" parent="1" vertex="1">
          <mxGeometry x="248" y="127.5" width="60" height="30" as="geometry" />
        </mxCell>
        <mxCell id="eO766DsV-XlhexN8wjzY-19" value="D1" style="text;html=1;strokeColor=none;fillColor=none;align=center;verticalAlign=middle;whiteSpace=wrap;rounded=0;" parent="1" vertex="1">
          <mxGeometry x="204" y="231" width="60" height="30" as="geometry" />
        </mxCell>
        <mxCell id="eO766DsV-XlhexN8wjzY-21" value="M1" style="text;html=1;strokeColor=none;fillColor=none;align=center;verticalAlign=middle;whiteSpace=wrap;rounded=0;" parent="1" vertex="1">
          <mxGeometry x="477.5" y="251" width="60" height="30" as="geometry" />
        </mxCell>
        <mxCell id="eO766DsV-XlhexN8wjzY-22" value="Contactor" style="text;html=1;strokeColor=none;fillColor=none;align=center;verticalAlign=middle;whiteSpace=wrap;rounded=0;" parent="1" vertex="1">
          <mxGeometry x="712" y="150" width="60" height="30" as="geometry" />
        </mxCell>
        <mxCell id="eO766DsV-XlhexN8wjzY-23" value="Thermostat" style="text;html=1;strokeColor=none;fillColor=none;align=center;verticalAlign=middle;whiteSpace=wrap;rounded=0;" parent="1" vertex="1">
          <mxGeometry x="820" y="195" width="60" height="30" as="geometry" />
        </mxCell>
        <mxCell id="eO766DsV-XlhexN8wjzY-25" value="Load" style="text;html=1;strokeColor=none;fillColor=none;align=center;verticalAlign=middle;whiteSpace=wrap;rounded=0;" parent="1" vertex="1">
          <mxGeometry x="816" y="270.5" width="60" height="30" as="geometry" />
        </mxCell>
        <mxCell id="eO766DsV-XlhexN8wjzY-27" value="Coil" style="text;html=1;strokeColor=none;fillColor=none;align=center;verticalAlign=middle;whiteSpace=wrap;rounded=0;" parent="1" vertex="1">
          <mxGeometry x="712" y="318" width="60" height="30" as="geometry" />
        </mxCell>
        <mxCell id="eO766DsV-XlhexN8wjzY-29" value="R2" style="text;html=1;strokeColor=none;fillColor=none;align=center;verticalAlign=middle;whiteSpace=wrap;rounded=0;" parent="1" vertex="1">
          <mxGeometry x="375" y="240.5" width="60" height="30" as="geometry" />
        </mxCell>
        <mxCell id="eO766DsV-XlhexN8wjzY-31" value="AC" style="text;html=1;strokeColor=none;fillColor=none;align=center;verticalAlign=middle;whiteSpace=wrap;rounded=0;" parent="1" vertex="1">
          <mxGeometry x="132" y="388.5" width="60" height="30" as="geometry" />
        </mxCell>
        <mxCell id="B-WgJyLfi245DJp-j256-2" value="" style="endArrow=none;html=1;rounded=0;exitX=0.497;exitY=0.826;exitDx=0;exitDy=0;exitPerimeter=0;jumpSize=50;jumpStyle=sharp;endSize=28;startSize=24;strokeWidth=1;targetPerimeterSpacing=32;dashed=1;" parent="1" edge="1">
          <mxGeometry width="50" height="50" relative="1" as="geometry">
            <mxPoint x="742.064" y="260.99799999999993" as="sourcePoint" />
            <mxPoint x="741.88" y="224" as="targetPoint" />
          </mxGeometry>
        </mxCell>
        <mxCell id="eO766DsV-XlhexN8wjzY-8" value="" style="rounded=0;whiteSpace=wrap;html=1;fillColor=#000000;" parent="1" vertex="1">
          <mxGeometry x="478" y="213" width="6" height="6" as="geometry" />
        </mxCell>
      </root>
    </mxGraphModel>
  </diagram>
</mxfile>
